<svg width="36" height="36" viewBox="0 0 36 36" fill="none" xmlns="http://www.w3.org/2000/svg">
<path d="M0 18C0 13.0294 4.02944 9 9 9H22.5C24.9853 9 27 11.0145 27 13.5C27 15.9855 24.9853 18 22.5 18H13.5C11.0147 18 9 20.0145 9 22.5C9 24.9855 11.0147 27 13.5 27H27C27 31.9706 22.9706 36 18 36H9C4.02944 36 0 31.9706 0 27V18Z" fill="url(#paint0_linear_542_94530)"/>
<path d="M36 18C36 22.9706 31.9706 27 27 27H13.5C11.0147 27 9 24.9855 9 22.5C9 20.0145 11.0147 18 13.5 18H22.5C24.9853 18 27 15.9855 27 13.5C27 11.0145 24.9853 9 22.5 9L9 9C9 4.02944 13.0294 -4.3454e-07 18 0L27 7.86805e-07C31.9706 1.22135e-06 36 4.02944 36 9V18Z" fill="url(#paint1_linear_542_94530)"/>
<defs>
<linearGradient id="paint0_linear_542_94530" x1="2.86881" y1="12.2009" x2="23.2016" y2="34.4201" gradientUnits="userSpaceOnUse">
<stop stop-color="#0669BC"/>
<stop offset="1" stop-color="#0D3766"/>
</linearGradient>
<linearGradient id="paint1_linear_542_94530" x1="12.4805" y1="2.28922" x2="32.5156" y2="24.9336" gradientUnits="userSpaceOnUse">
<stop stop-color="#6BD6F6"/>
<stop offset="1" stop-color="#1489CE"/>
</linearGradient>
</defs>
</svg>
